PathFileType	4	(X/Y/Z)	c:/Users/goper/Files/vsCode/490R/osim_files/C11/C11_RoM_01.trc
DataRate	CameraRate	NumFrames	NumMarkers	Units                	OrigDataRate	OrigDataStartFrame	OrigNumFrames
120.00	120.00	5	36	mm	120.0	1372	2195
                Frame#	Time	LPSI			LASI			LTH1			LTH2			LTH3			LTH4			LLFE			LMFE			LSH1			LSH2			LSH3			LSH4			LLMA			LMMA			LCAL			LMTP			LTOE			LMTP			RPSI			RASI			RTH1			RTH2			RTH3			RTH4			RLFE			RMFE			RSH1			RSH2			RSH3			RSH4			RLMA			RMMA			RCAL			RMTP			RTOE			RMTP		
		X1	Y1	Z1	X2	Y2	Z2	X3	Y3	Z3	X4	Y4	Z4	X5	Y5	Z5	X6	Y6	Z6	X7	Y7	Z7	X8	Y8	Z8	X9	Y9	Z9	X10	Y10	Z10	X11	Y11	Z11	X12	Y12	Z12	X13	Y13	Z13	X14	Y14	Z14	X15	Y15	Z15	X16	Y16	Z16	X17	Y17	Z17	X18	Y18	Z18	X19	Y19	Z19	X20	Y20	Z20	X21	Y21	Z21	X22	Y22	Z22	X23	Y23	Z23	X24	Y24	Z24	X25	Y25	Z25	X26	Y26	Z26	X27	Y27	Z27	X28	Y28	Z28	X29	Y29	Z29	X30	Y30	Z30	X31	Y31	Z31	X32	Y32	Z32	X33	Y33	Z33	X34	Y34	Z34	X35	Y35	Z35	X36	Y36	Z36

1372	11.42500	-411.68948	817.60974	426.75568	-266.76163	703.70300	360.20126	-187.95654	509.56595	245.90126	-145.33916	488.04202	237.33183	-154.67416	561.18024	238.97214	-118.48589	531.09137	235.62164	-90.72786	442.85089	236.82480	-58.73377	446.63339	348.38342	-151.96947	378.23444	227.11050	-174.24080	339.98795	225.91716	-100.84225	343.89127	220.77766	-130.20956	309.47287	221.28856	-302.79324	101.94160	275.81458	-265.24280	108.22330	367.47607	-361.71335	67.31814	331.51569	-200.40570	39.75709	230.48503	-123.71941	52.65177	295.65762	-163.64230	43.39277	343.84476	-402.58350	826.46942	509.92386	-278.78571	712.10693	588.42004	-187.11363	507.50513	699.07690	-150.18672	483.83008	703.08337	-147.49393	556.04504	699.00604	-118.16394	524.79663	704.41119	-93.96455	446.64618	701.17639	-93.32538	432.61212	594.99445	-163.30254	378.55734	711.01099	-181.09155	336.45547	708.33051	-110.99620	345.77328	708.66223	-137.54083	308.02786	708.70392	-302.67984	99.36729	658.20056	-269.43372	104.55928	564.94568	-364.91876	63.70576	609.03192	-149.52435	48.27102	599.61932	-147.80481	59.56652	649.54718	-192.90007	37.90586	708.90436
1373	11.43333	-411.29764	825.57263	427.03131	-265.74780	712.14642	359.96179	-189.64133	513.18323	246.24220	-147.28035	491.14597	237.65021	-155.52744	564.34589	238.91867	-119.82854	533.65283	235.70656	-93.42973	444.90372	237.12370	-60.94672	448.76273	348.46570	-154.52077	379.50760	227.32195	-176.60895	341.06757	226.10431	-103.17861	345.65170	220.89027	-132.25188	311.02588	221.32668	-302.97198	101.80057	275.65668	-265.56793	108.30257	367.34293	-361.81454	67.11905	331.37723	-200.42870	39.72808	230.45651	-123.75731	52.70382	295.63925	-163.70587	43.43782	343.81705	-402.13046	834.36542	510.03531	-276.49081	720.97852	588.74500	-188.32292	510.85339	698.48279	-151.80797	486.64230	702.32428	-147.98930	558.78302	698.67719	-119.09232	527.03857	703.88568	-95.98779	448.77335	700.47601	-95.46888	434.66800	594.19348	-165.44910	379.80832	710.39282	-183.09438	337.57352	707.75867	-112.86816	347.56488	707.99402	-139.17339	309.57913	708.09198	-302.82675	99.42702	658.24377	-269.59790	104.57294	564.92444	-365.25848	63.77870	609.02441	-149.53612	48.30225	599.59619	-147.78844	59.63416	649.51459	-192.96907	37.92288	708.88525
1374	11.44167	-410.81183	833.46057	427.06522	-265.11157	720.85132	359.92093	-191.30023	516.73907	246.75061	-149.27235	494.14261	238.07440	-156.27890	567.51483	238.98535	-121.12193	536.21533	235.86028	-96.03644	447.07355	237.38245	-63.29807	450.84314	348.58804	-157.25211	380.86780	227.62010	-178.91751	342.16998	226.32353	-105.55934	347.45963	221.01981	-134.42769	312.48718	221.42622	-303.09805	101.69232	275.50940	-265.86084	108.39802	367.19681	-362.02316	67.00211	331.18210	-200.47052	39.74389	230.39604	-123.80070	52.78098	295.60068	-163.75540	43.48910	343.75705	-401.56351	842.35236	510.17551	-275.64215	729.41223	588.57953	-189.24301	514.45984	697.72382	-153.39925	489.52765	701.46655	-148.48357	561.50024	698.24396	-120.11510	529.22791	703.19696	-98.31477	450.83786	699.52087	-97.80457	436.79706	593.07391	-167.77571	381.13760	709.66956	-185.35291	338.75504	706.97546	-114.82397	349.36475	707.33447	-140.93019	311.19110	707.52673	-302.99164	99.49945	658.24298	-269.77029	104.57323	564.93195	-364.58234	63.44309	609.14404	-149.55264	48.33815	599.55615	-147.77982	59.75135	649.45685	-193.11435	37.86625	708.74054
1375	11.45000	-410.38049	841.23816	427.33932	-264.16071	729.62219	359.94073	-192.99471	520.37677	247.31879	-151.23969	497.22235	238.57491	-157.06779	570.63892	239.10330	-122.42435	538.73035	236.08983	-98.81414	449.17493	237.81955	-65.65905	452.92407	348.77145	-159.88139	382.16531	227.89355	-181.50995	343.38763	226.27438	-107.59817	349.24905	220.89435	-136.31450	314.37054	221.26817	-303.23547	101.54337	275.34949	-266.12805	108.44371	367.08762	-362.14825	66.82801	331.03204	-200.50040	39.73439	230.33667	-123.80985	52.78182	295.59836	-163.81549	43.51706	343.70499	-401.02390	850.14526	510.40524	-274.60037	737.81384	588.45404	-190.79597	517.55988	696.83545	-154.93056	492.35315	700.47241	-148.92108	564.18207	697.71252	-121.18310	531.36847	702.45911	-100.42451	452.87894	698.56036	-100.48820	438.42538	592.39832	-170.04813	382.38986	708.84680	-187.24300	339.90134	706.31342	-116.78824	351.20605	706.52942	-142.51584	312.71509	706.81281	-303.10526	99.54244	658.23352	-269.94711	104.56364	564.93732	-364.70541	63.43914	609.16370	-149.56897	48.37951	599.50641	-147.77779	59.80069	649.39227	-193.11705	37.88837	708.70251
1376	11.45833	-409.83865	848.96509	427.58142	-263.39111	738.30841	359.91687	-194.57385	523.98407	247.90015	-153.23627	500.19678	239.16084	-157.90327	573.70935	239.32735	-123.66702	541.23755	236.47043	-101.54364	451.30563	238.27573	-68.01250	454.81033	349.15152	-162.54553	383.52475	228.33295	-183.63826	344.61810	226.60974	-110.06340	351.00845	221.20312	-138.52261	315.87912	221.49799	-303.40204	101.39019	275.23657	-266.38354	108.45914	366.96295	-362.25690	66.66160	330.90079	-200.51216	39.69143	230.31528	-123.87230	52.83635	295.60886	-163.85745	43.51178	343.68668	-400.26428	857.92932	510.71002	-273.50214	746.00793	588.25476	-191.91422	520.82214	695.87677	-156.65652	495.01505	699.45728	-149.39709	566.78564	697.13293	-122.14655	533.47058	701.65161	-102.62437	454.96222	697.54285	-102.91797	440.29645	591.30566	-172.25081	383.70007	708.04700	-189.19966	340.98785	705.54004	-118.84359	352.93658	705.74310	-144.34853	314.26492	706.13409	-303.22794	99.56843	658.29456	-270.12418	104.55475	564.96423	-364.65298	63.27566	609.29706	-149.55928	48.37696	599.51031	-147.79045	59.82006	649.38354	-193.12772	37.88729	708.69568
